<svg version="1.1" x="0px" y="0px" width="200" height="200" viewBox="0 0 310 310" xmlns="http://www.w3.org/2000/svg">
	<g>
		<path d="M256,0C115.031,0,0,115.049,0,256c0,140.969,115.049,256,256,256c140.969,0,256-115.049,256-256
			C512,115.031,396.951,0,256,0z M256,482C131.383,482,30,380.617,30,256S131.383,30,256,30s226,101.383,226,226
			S380.617,482,256,482z" />
	</g>
	<g>
		<path d="M414.771,143.165l-10.288-14.436L128.729,404.486C149.259,419.117,189.298,451,256,451c107.523,0,195-87.477,195-195
			C451,215.442,438.473,176.424,414.771,143.165z M256,421c-28.315,0-55.753-7.232-80.308-21.052l224.255-224.256
			C413.768,200.246,421,227.685,421,256C421,346.981,346.981,421,256,421z" />
	</g>
	<g>
		<path d="M256,61C148.477,61,61,148.477,61,256c0,40.557,12.527,79.575,36.227,112.835l10.287,14.437l275.758-275.758
			C362.741,92.883,322.702,61,256,61z M91,256c0-90.981,74.019-165,165-165c28.315,0,55.753,7.232,80.308,21.052L112.052,336.308
			C98.231,311.753,91,284.315,91,256z" />
	</g>
</svg>
