<svg style="width: 100px; height: 100px" version="1.1" xmlns="http://www.w3.org/2000/svg" xmlns:xlink="http://www.w3.org/1999/xlink">
	<defs>
		<symbol id="home" x="0px" y="0px" width="200" height="200" viewBox="0 0 310 310">
			<title>home</title>
			<path d="M63.663,29.424c-0.143-1.093-0.701-2.065-1.575-2.737l-11.715-9.021V8.608c0-2.275-1.851-4.126-4.125-4.126
		c-2.273,0-4.125,1.851-4.125,4.126v2.705l-7.758-5.975c-0.718-0.551-1.612-0.856-2.517-0.856c-0.906,0-1.801,0.304-2.519,0.857
		L1.606,26.687c-1.802,1.389-2.139,3.983-0.751,5.785c0.788,1.022,1.979,1.608,3.271,1.608c0.664,0,1.302-0.153,1.88-0.451V55.09
		c0,2.275,1.851,4.127,4.126,4.127h18.534V39.732h6.351v19.482h18.271c2.274,0,4.125-1.85,4.125-4.127V33.472
		c0.649,0.399,1.387,0.608,2.157,0.608c1.289,0,2.482-0.586,3.27-1.606C63.514,31.601,63.807,30.518,63.663,29.424z M59.819,30.144
		c-0.08,0.105-0.189,0.122-0.247,0.122c-0.069,0-0.132-0.021-0.188-0.065L53.6,25.748V55.09c0,0.173-0.14,0.312-0.311,0.312H38.832
		l0.001-19.484H24.852v19.484H10.132c-0.171,0-0.31-0.141-0.31-0.312V25.96L4.315,30.2c-0.056,0.043-0.119,0.065-0.188,0.065
		c-0.059,0-0.167-0.017-0.248-0.121c-0.065-0.084-0.07-0.171-0.062-0.229c0.007-0.058,0.034-0.141,0.118-0.205L31.661,8.363
		c0.138-0.105,0.239-0.106,0.379,0l13.899,10.703V8.608c0-0.172,0.14-0.311,0.311-0.311s0.312,0.139,0.312,0.311v10.935
		l13.205,10.166c0.084,0.064,0.108,0.147,0.116,0.205C59.891,29.975,59.885,30.062,59.819,30.144z"></path>
		</symbol>
		<symbol id="contacts" x="0px" y="0px" width="100" height="100" viewBox="0 0 310 310">
			<title>contacts</title>
			<path d="M79.748,13.344c2.147-0.662,4.012-1.453,5.071-2.405c0,0,0.107,2.97,1.696,6.234
			c8.697,3.335,9.785,11.034,9.538,19.011v7.333c0.458-0.233,0.927-0.326,1.374-0.208c1.503,0.404,0.698,4.831,0.007,7.473
			c-0.673,2.57-2.613,4.098-4.098,3.826c-1.106,6.868-3.507,11.81-6.861,15.088c14.53,5.222,24.884,18.578,24.884,34.285h-9.91
			c-1.113-15.432-10.765-29.293-25.113-36.257c2.222-3.346,3.847-7.423,4.853-12.2c2.258-1.045,4.116-3.357,4.892-6.313
			c0.673-2.541,2.595-9.878-1.403-12.143v-4.753C84.815,28.06,85.051,19.567,79.748,13.344z M34.901,67.778
			c-2.072-3.293-3.579-7.347-4.559-12.25c-2.426-1.102-4.524-3.561-5.29-6.488c-0.787-3.003-2.065-9.792,1.786-11.961v-4.864
			c0-1.46-0.039-2.849-0.079-4.169c-0.132-4.531-0.043-8.425,1.177-11.621c-14.806,2.434-12.483,9.037-12.483,19.759v7.333
			c-0.458-0.233-0.923-0.326-1.367-0.208c-1.503,0.404-1.049,4.663-0.358,7.308c0.68,2.591,2.992,4.287,4.474,3.987
			c1.124,7.219,3.375,12.018,6.478,15.16C10.257,75.043,0,88.349,0,103.985h9.91C11.019,88.621,20.628,74.768,34.901,67.778z
			 M70.543,69.17c3.701-3.622,6.352-9.058,7.569-16.634c1.628,0.297,3.769-1.385,4.513-4.219c0.762-2.91,1.65-7.795-0.011-8.239
			c-0.49-0.132-1.002-0.032-1.51,0.225v-8.088c0.272-8.793-0.934-17.282-10.515-20.958c-1.754-3.6-1.865-6.875-1.865-6.875
			c-4.316,3.887-20.704,5.461-20.704,5.461l0.186,0.05c-20.779,2.137-17.78,9.606-17.78,22.321v8.088
			c-0.508-0.258-1.016-0.361-1.51-0.225c-1.657,0.444-1.156,5.143-0.39,8.056c0.748,2.856,3.296,4.728,4.928,4.398
			c1.242,7.959,3.726,13.256,7.14,16.713c-15.901,5.816-27.214,20.5-27.214,37.732h84.608C97.978,89.656,86.562,74.921,70.543,69.17
			z" />
		</symbol>
		<symbol id="messages" x="0px" y="0px" width="200" height="200" viewBox="0 0 310 310">
			<title>messages</title>
			<polygon points="15.454,1.752 15.454,35.541 40.879,35.541 52.62,48.719 52.62,35.541 60.731,35.541 60.731,1.752" />
			<polygon points="37.654,38.769 12.221,38.769 12.221,18.769 0,18.769 0,47.697 6.954,47.697 6.954,58.979 17.002,47.697 
				38.769,47.697 38.769,40.023 " />
		</symbol>
		<symbol id="projects" x="0px" y="0px" width="200" height="200" viewBox="0 0 310 310">
			<title>ideas</title>
			<path d="M39.172,54.864v-5.009c0.038-0.049,0.079-0.098,0.107-0.152c0.235-0.461,5.777-11.355,5.777-16.371
			c0-7.162-5.827-12.988-12.99-12.988c-7.163,0-12.99,5.826-12.99,12.988c0,4.205,4.636,13.361,5.91,15.797
			c-0.005,0.041-0.024,0.076-0.024,0.119v5.616c0,0.554,0.448,1,1,1h12.208C38.724,55.864,39.172,55.418,39.172,54.864z
			 M30.18,37.275h3.775v10.846c0,0.045,0.02,0.084,0.024,0.127h-3.826c0.005-0.043,0.025-0.082,0.025-0.127L30.18,37.275
			L30.18,37.275z M32.068,22.344c6.06,0,10.99,4.93,10.99,10.988c0,3.947-4.169,12.653-5.287,14.916H35.93
			c0.005-0.043,0.025-0.082,0.025-0.127V37.275h1.025c0.553,0,1-0.447,1-1s-0.447-1-1-1h-1.025v-0.5c0-0.553-0.448-1-1-1
			s-1,0.447-1,1v0.5H30.18v-0.5c0-0.553-0.448-1-1-1c-0.552,0-1,0.447-1,1v0.5h-1.335c-0.552,0-1,0.447-1,1s0.448,1,1,1h1.335
			v10.846c0,0.045,0.02,0.084,0.025,0.127h-1.422c-1.822-3.467-5.705-11.555-5.705-14.916
			C21.078,27.273,26.008,22.344,32.068,22.344z" />
			<path d="M29.18,57.117c-0.552,0-1,0.446-1,1c0,0.553,0.448,1,1,1h5.775c0.552,0,1-0.447,1-1c0-0.554-0.448-1-1-1H29.18z" />
			<path d="M33.068,13.04V6.018c0-0.553-0.449-1-1-1c-0.552,0-1,0.447-1,1v7.022c0,0.553,0.448,1,1,1
			C32.62,14.04,33.068,13.592,33.068,13.04z" />
			<path d="M49.085,21.087c0.256,0,0.512-0.098,0.707-0.293l4.965-4.966c0.391-0.391,0.391-1.023,0-1.414s-1.023-0.391-1.414,0
			l-4.965,4.966c-0.391,0.391-0.391,1.023,0,1.414C48.573,20.989,48.829,21.087,49.085,21.087z" />
			<path d="M45.551,7.988c-0.502-0.232-1.096-0.014-1.328,0.487l-2.95,6.371c-0.231,0.501-0.014,1.096,0.487,1.327
			c0.136,0.063,0.279,0.093,0.42,0.093c0.377,0,0.739-0.215,0.908-0.58l2.95-6.371C46.27,8.814,46.052,8.22,45.551,7.988z" />
			<path d="M20.344,7.237c-0.514,0.201-0.768,0.782-0.565,1.296l2.565,6.534c0.154,0.395,0.532,0.635,0.931,0.635
			c0.121,0,0.245-0.022,0.365-0.069c0.514-0.201,0.768-0.782,0.565-1.296L21.64,7.803C21.438,7.29,20.856,7.037,20.344,7.237z" />
			<path d="M1.812,26.417c-0.184,0.521,0.089,1.092,0.61,1.275l6.622,2.34c0.11,0.039,0.223,0.058,0.333,0.058
			c0.412,0,0.798-0.256,0.943-0.667c0.184-0.521-0.089-1.092-0.61-1.275l-6.622-2.34C2.569,25.624,1.997,25.896,1.812,26.417z" />
			<path d="M61.713,46.514l-6.622-2.338c-0.521-0.18-1.092,0.091-1.276,0.611c-0.184,0.521,0.09,1.092,0.61,1.275l6.622,2.337
			c0.11,0.038,0.223,0.058,0.333,0.058c0.412,0,0.798-0.258,0.943-0.668C62.507,47.269,62.232,46.697,61.713,46.514z" />
			<path d="M11.258,47.049c-0.239-0.498-0.837-0.711-1.334-0.471l-6.335,3.028c-0.498,0.237-0.709,0.836-0.471,1.334
			c0.172,0.358,0.53,0.567,0.903,0.567c0.145,0,0.292-0.03,0.431-0.098l6.335-3.029C11.285,48.145,11.496,47.547,11.258,47.049z" />
			<path d="M54.211,27.629l6.335-3.027c0.499-0.238,0.709-0.835,0.471-1.334c-0.238-0.498-0.835-0.709-1.333-0.471l-6.335,3.027
			c-0.499,0.238-0.709,0.835-0.471,1.334c0.172,0.358,0.53,0.568,0.903,0.568C53.925,27.728,54.072,27.695,54.211,27.629z" />
			<path d="M14.146,21.01c0.194,0.189,0.446,0.284,0.698,0.284c0.26,0,0.52-0.101,0.716-0.302c0.034-0.035,0.048-0.08,0.077-0.118
			c0.039-0.029,0.084-0.045,0.12-0.08c0.391-0.391,0.391-1.023,0-1.414l-4.963-4.966c-0.391-0.391-1.024-0.391-1.415,0
			c-0.049,0.05-0.074,0.111-0.111,0.167c-0.055,0.037-0.117,0.063-0.165,0.112c-0.386,0.396-0.378,1.028,0.018,1.414L14.146,21.01z" />
			<path d="M9.017,37.898c-0.02-0.553-0.498-1.02-1.034-0.965l-7.017,0.242C0.414,37.195-0.019,37.658,0,38.209
			C0.02,38.75,0.462,39.176,1,39.176c0.012,0,0.023,0,0.035-0.002l7.017-0.242C8.604,38.914,9.036,38.451,9.017,37.898z" />
			<path d="M63.1,35.033l-7.017,0.243c-0.552,0.019-0.984,0.481-0.965,1.033c0.019,0.541,0.462,0.966,0.999,0.966
			c0.012,0,0.022,0,0.035-0.001l7.017-0.243c0.552-0.02,0.984-0.48,0.965-1.033C64.115,35.445,63.651,34.983,63.1,35.033z" />

		</symbol>
		<symbol id="notify" x="0px" y="0px" width="60" height="60" viewBox="0 0 800 800">
			<g>
				<path d="M467.812,431.851l-36.629-61.056c-16.917-28.181-25.856-60.459-25.856-93.312V224c0-67.52-45.056-124.629-106.667-143.04
					V42.667C298.66,19.136,279.524,0,255.993,0s-42.667,19.136-42.667,42.667V80.96C151.716,99.371,106.66,156.48,106.66,224v53.483
					c0,32.853-8.939,65.109-25.835,93.291l-36.629,61.056c-1.984,3.307-2.027,7.403-0.128,10.752c1.899,3.349,5.419,5.419,9.259,5.419
					H458.66c3.84,0,7.381-2.069,9.28-5.397C469.839,439.275,469.775,435.136,467.812,431.851z" />
			</g>
			<g>
				<path d="M188.815,469.333C200.847,494.464,226.319,512,255.993,512s55.147-17.536,67.179-42.667H188.815z" />
			</g>
		</symbol>
		<symbol id="user" x="0px" y="0px" width="200" height="200" viewBox="0 0 150 150">
			<path d="M18.486,18.104c1.034-1.013,1.775-2.531,2.115-4.648c0.455,0.083,1.053-0.387,1.261-1.179
	c0.214-0.813,0.462-2.178-0.003-2.302c-0.137-0.037-0.279-0.009-0.422,0.063v-2.26c0.076-2.457-0.26-4.829-2.939-5.856
	C18.009,0.915,17.977,0,17.977,0c-1.206,1.086-5.785,1.526-5.785,1.526l0.052,0.014C6.438,2.137,7.276,4.224,7.276,7.777v2.26
	C7.134,9.965,6.992,9.936,6.854,9.974c-0.463,0.124-0.323,1.437-0.109,2.251c0.209,0.798,0.921,1.321,1.377,1.229
	c0.347,2.223,1.041,3.703,1.995,4.67c-4.443,1.625-7.604,5.728-7.604,10.543h23.641C26.152,23.827,22.962,19.71,18.486,18.104z" />
		</symbol>
		<symbol id="save" x="0px" y="0px" width="100" height="100" viewBox="0 0 1200 1200">
			<g>
				<path d="m142 143.003h139v-143c-49.379 0-107.674 0-154 0v128c0 8.271 6.729 15 15 15z" />
				<path d="m345 128.003v-128c-9.97 0-21.461 0-34 0v143h19c8.271 0 15-6	.729 15-15z" />
				<path d="m127 512.003h218v-161h-218z" />
				<path d="m511.927 126.537c-.279-2.828-1.38-5.667-3.315-8.027-.747-.913 6.893 6.786-114.006-114.113-2.882-2.882-6.794-4.396-10.612-4.394-.789 0-3.925 0-8.995 0v128c0 24.813-20.187 45-45 45-14.028 0-186.064 0-188 0-24.813 0-45-20.187-45-45v-128c-29.589 0-49.82 0-52 0-24.813 0-45 20.187-45 45v422c0 24.813 20.187 45 45 45h52c0-10.815 0-201.797 0-210 0-24.813 20.187-45 45-45h188c24.813 0 45 20.187 45 45v210h92c24.813 0 45-20.187 45-45 .001-364.186.041-339.316-.072-340.466z" />
				<path d="m330 287.003h-188c-8.271 0-15 6.729-15 15v19h218v-19c0-8.271-6.729-15-15-15z" />
			</g>
		</symbol>
		<symbol id="login" x="0px" y="0px" width="200" height="200" viewBox="0 0 150 150">
			<g>
			    <path d="M19.414 27.414l10-10c0.781-0.781 0.781-2.047 0-2.828l-10-10c-0.781-0.781-2.047-0.781-2.828 0s-0.781 2.047 0 2.828l6.586 6.586h-19.172c-1.105 0-2 0.895-2 2s0.895 2 2 2h19.172l-6.586 6.586c-0.39 0.39-0.586 0.902-0.586 1.414s0.195 1.024 0.586 1.414c0.781 0.781 2.047 0.781 2.828 0z"></path>
			</g>
		</symbol>
		<symbol id="edit" x="0px" y="0px" width="100" height="100" viewBox="0 0 2310 2310">
			<title>edit</title>
			<g>
				<g>
					<polygon points="51.2,353.28 0,512 158.72,460.8 		" />
				</g>
			</g>
			<g>
				<g>
					<rect x="89.73" y="169.097" transform="matrix(0.7071 -0.7071 0.7071 0.7071 -95.8575 260.3719)" width="353.277" height="153.599" />
				</g>
			</g>
			<g>
				<g>
					<path d="M504.32,79.36L432.64,7.68c-10.24-10.24-25.6-10.24-35.84,0l-23.04,23.04l107.52,107.52l23.04-23.04
					C514.56,104.96,514.56,89.6,504.32,79.36z" />
				</g>
			</g>
		</symbol>
		<symbol id="delete" x="0px" y="0px" width="100" height="100" viewBox="0 0 2310 2310">
			<title>delete</title>
			<g>
				<path d="m424 64h-88v-16c0-26.51-21.49-48-48-48h-64c-26.51 0-48 21.49-48 48v16h-88c-22.091 0-40 17.909-40 40v32c0 8.837 7.163 16 16 16h384c8.837 0 16-7.163 16-16v-32c0-22.091-17.909-40-40-40zm-216-16c0-8.82 7.18-16 16-16h64c8.82 0 16 7.18 16 16v16h-96z" />
				<path d="m78.364 184c-2.855 0-5.13 2.386-4.994 5.238l13.2 277.042c1.22 25.64 22.28 45.72 47.94 45.72h242.98c25.66 0 46.72-20.08 47.94-45.72l13.2-277.042c.136-2.852-2.139-5.238-4.994-5.238zm241.636 40c0-8.84 7.16-16 16-16s16 7.16 16 16v208c0 8.84-7.16 16-16 16s-16-7.16-16-16zm-80 0c0-8.84 7.16-16 16-16s16 7.16 16 16v208c0 8.84-7.16 16-16 16s-16-7.16-16-16zm-80 0c0-8.84 7.16-16 16-16s16 7.16 16 16v208c0 8.84-7.16 16-16 16s-16-7.16-16-16z" />
			</g>
		</symbol>
		<symbol id="label" x="0px" y="0px" width="200" height="200" viewBox="0 0 310 310">
			<g>
				<path d="M45.935,32.097L33.265,9.731c-0.369-0.526-1.184-1.091-1.802-1.257L17.765,4.805c-0.622-0.167-1.264,0.206-1.429,0.827
				l-0.341,1.259c-0.867-0.486-1.773-0.969-2.741-1.439c-4.531-2.196-9-3.616-11.379-3.616c-0.862,0-1.438,0.191-1.707,0.569
				C0.05,2.567-0.063,2.847,0.042,3.261c0.425,1.67,4.429,4.637,9.74,7.21c1.609,0.78,3.212,1.46,4.719,2.013l-1.834,6.844
				c-0.163,0.62-0.081,1.605,0.189,2.189l13.038,22.158c0.27,0.584,0.942,0.794,1.503,0.475l18.203-10.512
				C46.153,33.315,46.302,32.624,45.935,32.097z M21.017,12.09c0.266-0.154,0.558-0.221,0.845-0.285
				c0.323,0.381,0.546,0.724,0.62,0.991c0.044,0.174,0.031,0.31-0.049,0.416c-0.156,0.224-0.612,0.345-1.273,0.345
				c-0.374,0-0.822-0.048-1.299-0.121C20.105,12.898,20.466,12.408,21.017,12.09z M10.013,9.992c-5.779-2.8-9.129-5.57-9.461-6.862
				C0.51,2.955,0.525,2.819,0.601,2.715c0.16-0.225,0.615-0.346,1.276-0.346c2.305,0,6.683,1.398,11.146,3.562
				c1.028,0.5,1.957,0.997,2.831,1.487l-1.217,4.556C13.161,11.427,11.594,10.759,10.013,9.992z M23.937,17.145
				c-1.395,0.804-3.182,0.33-3.989-1.07c-0.388-0.675-0.463-1.438-0.294-2.142c0.553,0.091,1.077,0.151,1.509,0.151
				c0.862,0,1.436-0.19,1.705-0.569c0.116-0.165,0.234-0.441,0.129-0.855c-0.068-0.271-0.26-0.584-0.512-0.918
				c1.005,0.007,1.986,0.481,2.521,1.411C25.812,14.555,25.331,16.344,23.937,17.145z" />
			</g>
		</symbol>
		<symbol id="like" x="0px" y="0px" width="100" height="100" viewBox="0 0 2210 2210">
			<g>
				<path d="M53.333,224C23.936,224,0,247.936,0,277.333V448c0,29.397,23.936,53.333,53.333,53.333h64
					c12.011,0,23.061-4.053,32-10.795V224H53.333z" />
			</g>
			<g>
				<path d="M512,304c0-12.821-5.077-24.768-13.888-33.579c9.963-10.901,15.04-25.515,13.653-40.725
					c-2.496-27.115-26.923-48.363-55.637-48.363H324.352c6.528-19.819,16.981-56.149,16.981-85.333c0-46.272-39.317-85.333-64-85.333
					c-22.165,0-37.995,12.48-38.677,12.992c-2.517,2.027-3.989,5.099-3.989,8.341v72.341l-61.44,133.099l-2.56,1.301v228.651
					C188.032,475.584,210.005,480,224,480h195.819c23.232,0,43.563-15.659,48.341-37.269c2.453-11.115,1.024-22.315-3.861-32.043
					c15.765-7.936,26.368-24.171,26.368-42.688c0-7.552-1.728-14.784-5.013-21.333C501.419,338.731,512,322.496,512,304z" />
			</g>
		</symbol>
		<symbol id="talk" x="0px" y="0px" width="200" height="200" viewBox="0 0 510 510">
			<g>
				<polygon points="15.454,1.752 15.454,35.541 40.879,35.541 52.62,48.719 52.62,35.541 60.731,35.541 60.731,1.752 			" />
			</g>
			<g>
				<polygon points="37.654,38.769 12.221,38.769 12.221,18.769 0,18.769 0,47.697 6.954,47.697 6.954,58.979 17.002,47.697 
						38.769,47.697 38.769,40.023 			" />
			</g>
		</symbol>
		<symbol id="send" x="0px" y="0px" width="200" height="200" viewBox="0 0 4810 4810">
			<g>
				<path d="m511.658 51.675c2.496-11.619-8.895-21.416-20.007-17.176l-482 184c-5.801 2.215-9.638 7.775-9.65 13.984-.012 6.21 3.803 11.785 9.596 14.022l135.403 52.295v164.713c0 6.948 4.771 12.986 11.531 14.593 6.715 1.597 13.717-1.598 16.865-7.843l56.001-111.128 136.664 101.423c8.313 6.17 20.262 2.246 23.287-7.669 127.599-418.357 122.083-400.163 122.31-401.214zm-118.981 52.718-234.803 167.219-101.028-39.018zm-217.677 191.852 204.668-145.757c-176.114 185.79-166.916 176.011-167.684 177.045-1.141 1.535 1.985-4.448-36.984 72.882zm191.858 127.546-120.296-89.276 217.511-229.462z" />
			</g>
		</symbol>
		<symbol id="connection" x="0px" y="0px" width="200" height="200" viewBox="0 0 4810 4810">
			<g>
				<path d="m372 191c-51.3 0-96.236 27.741-120.617 69.004l-122.378-52.75c.641-3.658.995-7.415.995-11.254s-.354-7.596-.995-11.254l125.368-54.039c10.093 12.374 25.451 20.293 42.627 20.293 30.327 0 55-24.673 55-55s-24.673-55-55-55-55 24.673-55 55c0 2.43.175 4.818.482 7.166l-125.364 54.037c-11.861-15.893-30.807-26.203-52.118-26.203-35.841 0-65 29.159-65 65s29.159 65 65 65c21.311 0 40.257-10.31 52.118-26.202l121.866 52.529c-4.526 13.749-6.984 28.428-6.984 43.673 0 77.196 62.804 140 140 140s140-62.804 140-140-62.804-140-140-140zm-75-120c13.785 0 25 11.215 25 25s-11.215 25-25 25-25-11.215-25-25 11.215-25 25-25zm-232 160c-19.299 0-35-15.701-35-35s15.701-35 35-35 35 15.701 35 35-15.701 35-35 35zm252 195.234v-.234c0-30.327 24.673-55 55-55s55 24.673 55 55v.234c-16.19 9.386-34.978 14.766-55 14.766s-38.81-5.38-55-14.766zm30-110.234c0-13.785 11.215-25 25-25s25 11.215 25 25-11.215 25-25 25-25-11.215-25-25zm107.124 88.096c-5.963-22.337-20.817-41.069-40.524-52.179 8.338-9.644 13.4-22.197 13.4-35.917 0-30.327-24.673-55-55-55s-55 24.673-55 55c0 13.72 5.062 26.273 13.4 35.917-19.707 11.11-34.561 29.842-40.524 52.179-17.328-19.447-27.876-45.061-27.876-73.096 0-60.654 49.346-110 110-110s110 49.346 110 110c0 28.035-10.548 53.649-27.876 73.096z" />
			</g>
		</symbol>
		<symbol id="prohibition" x="0px" y="0px" width="200" height="200" viewBox="0 0 4810 4810">
			<g>
				<path d="M256,0C115.031,0,0,115.049,0,256c0,140.969,115.049,256,256,256c140.969,0,256-115.049,256-256
					C512,115.031,396.951,0,256,0z M256,482C131.383,482,30,380.617,30,256S131.383,30,256,30s226,101.383,226,226
					S380.617,482,256,482z" />
			</g>
			<g>
				<path d="M414.771,143.165l-10.288-14.436L128.729,404.486C149.259,419.117,189.298,451,256,451c107.523,0,195-87.477,195-195
					C451,215.442,438.473,176.424,414.771,143.165z M256,421c-28.315,0-55.753-7.232-80.308-21.052l224.255-224.256
					C413.768,200.246,421,227.685,421,256C421,346.981,346.981,421,256,421z" />
			</g>
			<g>
				<path d="M256,61C148.477,61,61,148.477,61,256c0,40.557,12.527,79.575,36.227,112.835l10.287,14.437l275.758-275.758
					C362.741,92.883,322.702,61,256,61z M91,256c0-90.981,74.019-165,165-165c28.315,0,55.753,7.232,80.308,21.052L112.052,336.308
					C98.231,311.753,91,284.315,91,256z" />
			</g>
		</symbol>
		<symbol id="show" x="0px" y="0px" width="200" height="200" viewBox="0 0 2810 2810">
			<g>
				<path d="M508.745,246.041c-4.574-6.257-113.557-153.206-252.748-153.206S7.818,239.784,3.249,246.035
					c-4.332,5.936-4.332,13.987,0,19.923c4.569,6.257,113.557,153.206,252.748,153.206s248.174-146.95,252.748-153.201
					C513.083,260.028,513.083,251.971,508.745,246.041z M255.997,385.406c-102.529,0-191.33-97.533-217.617-129.418
					c26.253-31.913,114.868-129.395,217.617-129.395c102.524,0,191.319,97.516,217.617,129.418
					C447.361,287.923,358.746,385.406,255.997,385.406z" />
			</g>
			<g>
				<path d="M255.997,154.725c-55.842,0-101.275,45.433-101.275,101.275s45.433,101.275,101.275,101.275
					s101.275-45.433,101.275-101.275S311.839,154.725,255.997,154.725z M255.997,323.516c-37.23,0-67.516-30.287-67.516-67.516
					s30.287-67.516,67.516-67.516s67.516,30.287,67.516,67.516S293.227,323.516,255.997,323.516z" />
			</g>
		</symbol>
		<symbol id="folder" x="0px" y="0px" width="200" height="200" viewBox="0 0 3810 3810">
			<path d="M443.317,413.9H24.976C11.182,413.9,0,402.718,0,388.924V79.368
				c0-13.794,11.182-24.976,24.976-24.976h118.096c9.023,0,17.345,4.867,21.769,12.732l13.773,24.487
				c4.423,7.865,12.745,12.732,21.769,12.732h242.936c13.794,0,24.976,11.182,24.976,24.976v259.605
				C468.293,402.718,457.111,413.9,443.317,413.9z" />
			<path d="M24.976,413.9h418.341c13.794,0,24.976-11.182,24.976-24.976V129.32
				c0-13.794-11.182-24.976-24.976-24.976H262.782c-9.023,0-17.345,4.867-21.769,12.732l-13.773,24.487
				c-4.423,7.865-12.745,12.732-21.769,12.732H24.976C11.182,154.295,0,165.477,0,179.271v209.653C0,402.718,11.182,413.9,24.976,413.9
				z" />
			<path d="M453.559,106.59c1.414,3.132,2.245,6.582,2.245,10.242v259.604c0,13.793-11.182,24.976-24.976,24.976
				H12.488c-3.66,0-7.11-0.831-10.242-2.245c3.916,8.671,12.597,14.733,22.73,14.733h418.341c13.794,0,24.976-11.182,24.976-24.976
				V129.32C468.293,119.186,462.232,110.506,453.559,106.59z" />
		</symbol>
		<symbol id="share" x="0px" y="0px" width="200" height="200" viewBox="0 0 4510 4510">
			<path d="m512 233.820312-212.777344-233.320312v139.203125h-45.238281c-140.273437 0-253.984375 113.710937-253.984375 253.984375v73.769531l20.09375-22.019531c68.316406-74.851562 164.980469-117.5 266.324219-117.5h12.804687v139.203125zm0 0" />
		</symbol>
		<symbol id="local" x="0px" y="0px" width="200" height="200" viewBox="0 0 4510 4510">
			<g>
				<path d="M425.951,89.021C386.864,32.451,324.917,0,256.006,0S125.148,32.451,86.061,89.021
					c-38.895,56.284-47.876,127.541-24.072,190.496c6.367,17.192,16.488,33.895,30.01,49.547l150.378,176.634
					c3.401,3.998,8.384,6.302,13.629,6.302c5.245,0,10.228-2.303,13.629-6.302l150.336-176.586
					c13.582-15.742,23.69-32.427,30.004-49.481C473.827,216.562,464.846,145.305,425.951,89.021z M416.451,267.093
					c-4.869,13.158-12.818,26.167-23.613,38.68c-0.03,0.03-0.06,0.06-0.084,0.096L256.006,466.487L119.174,305.768
					c-10.789-12.502-18.738-25.51-23.655-38.794c-19.686-52.065-12.215-110.981,19.991-157.592
					c32.307-46.76,83.519-73.578,140.496-73.578c56.976,0,108.182,26.817,140.49,73.578
					C428.708,155.993,436.185,214.909,416.451,267.093z" />
			</g>
			<g>
				<path d="M256.006,106.219c-55.276,0-100.252,44.97-100.252,100.252s44.97,100.252,100.252,100.252s100.252-44.97,100.252-100.252
					C356.258,151.195,311.282,106.219,256.006,106.219z M256.006,270.918c-35.536,0-64.448-28.912-64.448-64.448
					c0-35.536,28.912-64.448,64.448-64.448c35.536,0,64.448,28.912,64.448,64.448S291.542,270.918,256.006,270.918z" />
			</g>
		</symbol>
		<symbol id="money-bag" x="0px" y="0px" width="200" height="200" viewBox="0 0 4510 4510">
			<g>
				<path d="m138.988 91h112.023c16.042-35.954 44.252-65.027 44.488-65.5 4.5-4.2 5.7-10.5 3.3-16.2-2.399-5.7-7.799-9.3-13.799-9.3-27 0-41.7 9.6-53.4 17.4-10.5 7.2-18.6 12.6-36.6 12.6s-26.1-5.4-36.6-12.6c-11.7-7.8-26.4-17.4-53.4-17.4-6 0-11.4 3.6-13.8 9.3s-1.2 12 3.3 16.2c.237.473 28.446 29.546 44.488 65.5z" />
				<path d="m301 467v30c0 8.284 6.716 15 15 15h181c8.284 0 15-6.716 15-15v-30c0-8.284-6.716-15-15-15h-181c-8.284 0-15 6.716-15 15z" />
				<path d="m512 407v-30c0-8.284-6.716-15-15-15h-181c-8.284 0-15 6.716-15 15v30c0 8.284 6.716 15 15 15h181c8.284 0 15-6.716 15-15z" />
				<path d="m299.1 242.6c-29.4-28.8-53.4-53.2-58.2-91.6h14.1c8.4 0 15-6.6 15-15s-6.6-15-15-15h-120c-8.4 0-15 6.6-15 15s6.6 15 15 15h14.1c-4.8 38.4-28.8 62.8-58.2 91.6-42.6 41.7-90.9 89.1-90.9 197.4.6 39.6 34.5 72 75 72h197.76c-1.68-4.71-2.76-9.72-2.76-15v-120c0-24.81 20.19-45 45-45h53.73c-18.15-38.9-45.07-65.3-69.63-89.4zm-104.1 89.4c24.814 0 45 20.186 45 45 0 19.53-12.578 36.024-30 42.237v17.763c0 8.291-6.709 15-15 15s-15-6.709-15-15v-17.763c-17.422-6.212-30-22.707-30-42.237 0-8.291 6.709-15 15-15s15 6.709 15 15c0 8.276 6.724 15 15 15s15-6.724 15-15-6.724-15-15-15c-24.814 0-45-20.186-45-45 0-19.53 12.578-36.024 30-42.237v-17.763c0-8.291 6.709-15 15-15s15 6.709 15 15v17.763c17.422 6.212 30 22.707 30 42.237 0 8.291-6.709 15-15 15s-15-6.709-15-15c0-8.276-6.724-15-15-15s-15 6.724-15 15 6.724 15 15 15z" />
			</g>
		</symbol>
		<symbol id="muscle" x="0px" y="0px" width="200" height="200" viewBox="0 0 4510 4510">
			<path d="m505.602 210.183c-4.022-2.806-9.164-3.466-13.765-1.772l-31.863 11.736c-21.536-15.312-48.52-23.661-76.952-23.661-39.289 0-75.877 16.34-98.156 43.246-17.337-11.246-38.118-15.286-59.094-11.127-14.675 2.912-28.072 9.645-38.664 19.004-6.704-39.091 15.543-75.792 45.254-117.774 13.359-7.073 30.32-6.647 48.21-6.194 10.892.274 22.154.559 33.044-.918 17.103-2.319 30.823-12.744 37.645-28.6 6.82-15.857 4.951-32.987-5.127-46.998l-20.409-28.374c-10.83-15.056-29.454-21.881-47.444-17.388-53.452 13.353-101.085 37.789-141.575 72.631-33.173 28.545-61.583 64.052-84.442 105.534-41.099 74.584-51.748 145.209-52.237 164.069-.025.972.044 1.943.207 2.901 5.757 33.898 30.776 64.672 70.448 86.654 37.79 20.939 86.371 32.471 136.793 32.471 49.268 0 96.174-10.832 133.474-30.666l81.021 73.151c2.752 2.485 6.327 3.863 10.036 3.867l65 .068h.016c3.976 0 7.788-1.578 10.601-4.388 2.816-2.813 4.399-6.631 4.399-10.612v-274.556c0-4.905-2.398-9.499-6.42-12.304z" />
		</symbol>
		<symbol id="nicho-tecnology" x="0px" y="0px" width="200" height="200" viewBox="0 0 4510 4510">
			<g>
				<g>
					<path d="M430.821,263.506h43.254c2.959,7.154,10.006,12.204,18.216,12.204c10.868,0,19.709-8.842,19.709-19.71
						c0-10.867-8.842-19.709-19.709-19.709c-8.215,0-15.264,5.055-18.22,12.215h-43.25v-65.601h43.254
						c2.959,7.154,10.006,12.204,18.216,12.204c10.868,0,19.709-8.842,19.709-19.71c0-10.867-8.842-19.709-19.709-19.709
						c-8.215,0-15.264,5.055-18.22,12.215h-43.25V88.68c0-4.143-3.358-7.5-7.5-7.5h-32.213c-4.142,0-7.5,3.357-7.5,7.5
						s3.358,7.5,7.5,7.5h24.713v79.216v0.01v0.01v80.581v0.01v0.01v80.58v0.01v0.01v79.205H96.181v-79.215v-0.01v-0.01v-80.581v-0.01
						v-0.01v-80.58v-0.01v-0.01V96.18h265.38c4.142,0,7.5-3.357,7.5-7.5s-3.358-7.5-7.5-7.5h-17.45V37.926
						c7.152-2.96,12.2-10.006,12.2-18.216c0-10.868-8.842-19.71-19.709-19.71c-10.867,0-19.709,8.842-19.709,19.71
						c0,8.216,5.057,15.267,12.219,18.222V81.18h-65.6V37.925c7.152-2.96,12.2-10.006,12.2-18.215C275.71,8.842,266.869,0,256.001,0
						c-10.868,0-19.709,8.842-19.709,19.71c0,8.217,5.057,15.267,12.219,18.223V81.18h-65.6V37.925
						c7.151-2.96,12.199-10.006,12.199-18.215C195.11,8.842,186.268,0,175.401,0s-19.71,8.842-19.71,19.71
						c0,8.217,5.058,15.268,12.22,18.223V81.18h-79.23c-4.142,0-7.5,3.357-7.5,7.5v79.216H37.927
						c-2.958-7.155-10.006-12.205-18.217-12.205c-10.867-0.001-19.709,8.841-19.709,19.708c0,10.868,8.842,19.71,19.709,19.71
						c8.214,0,15.263-5.055,18.22-12.214h43.25v65.6H37.927c-2.959-7.154-10.006-12.204-18.217-12.204
						c-10.867,0-19.709,8.842-19.709,19.709c0,10.868,8.842,19.71,19.709,19.71c8.214,0,15.264-5.055,18.22-12.215h43.25v65.601H37.927
						c-2.959-7.154-10.006-12.204-18.216-12.204c-10.868,0-19.71,8.841-19.71,19.71c0,10.867,8.842,19.709,19.709,19.709
						c8.215,0,15.264-5.055,18.22-12.215h43.25v79.225c0,4.143,3.358,7.5,7.5,7.5h79.21v43.255c-7.152,2.96-12.2,10.006-12.2,18.216
						c0,10.867,8.842,19.709,19.709,19.709s19.709-8.842,19.709-19.709c0-8.216-5.057-15.267-12.219-18.222v-43.25h65.6v43.255
						c-7.152,2.96-12.2,10.006-12.2,18.215c0,10.867,8.842,19.709,19.709,19.709s19.709-8.842,19.709-19.709
						c0-8.217-5.057-15.267-12.219-18.223V430.82h65.6v43.256c-7.151,2.96-12.199,10.006-12.199,18.215
						c0,10.867,8.842,19.709,19.709,19.709c10.867,0,19.709-8.842,19.709-19.709c0-8.217-5.058-15.268-12.22-18.223V430.82h79.23
						c4.142,0,7.5-3.357,7.5-7.5v-79.215h43.253c2.958,7.155,10.006,12.205,18.217,12.205c10.868,0,19.709-8.842,19.709-19.709
						c0-10.868-8.842-19.71-19.709-19.71c-8.214,0-15.263,5.055-18.22,12.214h-43.25v-65.599H430.821z M492.292,251.291
						c2.597,0,4.709,2.112,4.709,4.709s-2.113,4.71-4.709,4.71s-4.709-2.113-4.709-4.71
						C487.583,253.403,489.695,251.291,492.292,251.291z M492.292,170.69c2.597,0,4.709,2.112,4.709,4.709s-2.113,4.71-4.709,4.71
						s-4.709-2.113-4.709-4.71S489.695,170.69,492.292,170.69z M336.602,15c2.597,0,4.709,2.113,4.709,4.71
						c0,2.584-2.094,4.687-4.674,4.707c-0.009,0-0.017-0.001-0.026-0.001c-0.013,0-0.025,0.002-0.038,0.002
						c-2.583-0.016-4.68-2.12-4.68-4.707C331.892,17.113,334.005,15,336.602,15z M256.001,15c2.597,0,4.709,2.113,4.709,4.71
						c0,2.584-2.094,4.687-4.674,4.706c-0.009,0-0.017-0.001-0.026-0.001c-0.013,0-0.026,0.002-0.039,0.002
						c-2.583-0.016-4.681-2.12-4.681-4.707C251.292,17.113,253.404,15,256.001,15z M175.4,15c2.597,0,4.709,2.113,4.709,4.71
						c0,2.584-2.094,4.687-4.674,4.706c-0.008,0-0.017-0.001-0.025-0.001c-0.013,0-0.026,0.002-0.039,0.002
						c-2.583-0.016-4.681-2.12-4.681-4.707C170.691,17.113,172.804,15,175.4,15z M19.71,180.109c-2.597,0-4.709-2.113-4.709-4.71
						s2.113-4.709,4.709-4.709s4.709,2.112,4.709,4.709S22.307,180.109,19.71,180.109z M19.71,260.71c-2.597,0-4.709-2.113-4.709-4.71
						c0-2.597,2.113-4.709,4.709-4.709s4.709,2.112,4.709,4.709C24.419,258.597,22.307,260.71,19.71,260.71z M19.71,341.311
						c-2.597,0-4.709-2.112-4.709-4.709c0-2.597,2.113-4.71,4.709-4.71s4.709,2.113,4.709,4.71S22.307,341.311,19.71,341.311z
						 M175.4,497c-2.597,0-4.709-2.112-4.709-4.709c0-2.587,2.098-4.691,4.681-4.707c0.007,0,0.013,0.001,0.02,0.001
						c0.011,0,0.021-0.001,0.032-0.001c2.586,0.012,4.687,2.119,4.687,4.708C180.11,494.888,177.997,497,175.4,497z M256.001,497
						c-2.597,0-4.709-2.112-4.709-4.709c0-2.587,2.098-4.691,4.68-4.707c0.006,0,0.013,0.001,0.019,0.001
						c0.011,0,0.021-0.001,0.032-0.002c2.586,0.012,4.687,2.119,4.687,4.708C260.71,494.888,258.598,497,256.001,497z M336.602,497
						c-2.597,0-4.709-2.112-4.709-4.709c0-2.587,2.097-4.691,4.68-4.707c0.006,0,0.012,0.001,0.019,0.001
						c0.011,0,0.022-0.001,0.033-0.002c2.586,0.012,4.687,2.119,4.687,4.708C341.311,494.888,339.198,497,336.602,497z
						 M492.292,331.892c2.597,0,4.709,2.113,4.709,4.71s-2.113,4.709-4.709,4.709s-4.709-2.112-4.709-4.709
						C487.583,334.005,489.695,331.892,492.292,331.892z" />
				</g>
			</g>
			<g>
				<g>
					<path d="M398.564,105.938H113.438c-4.142,0-7.5,3.357-7.5,7.5v208.314c0,4.143,3.358,7.5,7.5,7.5c4.142,0,7.5-3.357,7.5-7.5
						V120.938h270.126v270.126H120.938v-39.765c0-4.143-3.358-7.5-7.5-7.5c-4.142,0-7.5,3.357-7.5,7.5v47.265
						c0,4.143,3.358,7.5,7.5,7.5h285.126c4.142,0,7.5-3.357,7.5-7.5V113.438C406.064,109.295,402.706,105.938,398.564,105.938z" />
				</g>
			</g>
			<g>
				<g>
					<path d="M307.319,197.184H204.684c-4.142,0-7.5,3.357-7.5,7.5v102.634c0,4.143,3.358,7.5,7.5,7.5h39.543
						c4.142,0,7.5-3.357,7.5-7.5s-3.358-7.5-7.5-7.5h-32.043v-87.634h87.635v87.634h-26.043c-4.142,0-7.5,3.357-7.5,7.5
						s3.358,7.5,7.5,7.5h33.543c4.142,0,7.5-3.357,7.5-7.5V204.684C314.819,200.541,311.461,197.184,307.319,197.184z" />
				</g>
			</g>
			<g>
				<g>
					<path d="M163.191,143.617h-12.074c-4.142,0-7.5,3.357-7.5,7.5v12.073c0,4.143,3.358,7.5,7.5,7.5h12.074c4.142,0,7.5-3.357,7.5-7.5
						v-12.073C170.691,146.974,167.333,143.617,163.191,143.617z" />
				</g>
			</g>
			<g>
				<g>
					<path d="M202.73,143.617h-12.073c-4.142,0-7.5,3.357-7.5,7.5v12.073c0,4.143,3.358,7.5,7.5,7.5h12.073c4.142,0,7.5-3.357,7.5-7.5
						v-12.073C210.23,146.975,206.872,143.617,202.73,143.617z" />
				</g>
			</g>
			<g>
				<g>
					<path d="M242.268,143.617h-12.073c-4.142,0-7.5,3.357-7.5,7.5v12.073c0,4.143,3.358,7.5,7.5,7.5h12.073c4.142,0,7.5-3.357,7.5-7.5
						v-12.073C249.768,146.974,246.41,143.617,242.268,143.617z" />
				</g>
			</g>
			<g>
				<g>
					<path d="M281.807,143.617h-12.073c-4.142,0-7.5,3.357-7.5,7.5v12.073c0,4.143,3.358,7.5,7.5,7.5h12.073c4.142,0,7.5-3.357,7.5-7.5
						v-12.073C289.307,146.974,285.949,143.617,281.807,143.617z" />
				</g>
			</g>
			<g>
				<g>
					<path d="M321.346,143.617h-12.073c-4.142,0-7.5,3.357-7.5,7.5v12.073c0,4.143,3.358,7.5,7.5,7.5h12.073c4.142,0,7.5-3.357,7.5-7.5
						v-12.073C328.846,146.974,325.488,143.617,321.346,143.617z" />
				</g>
			</g>
			<g>
				<g>
					<path d="M360.885,143.617h-12.074c-4.142,0-7.5,3.357-7.5,7.5v12.073c0,4.143,3.358,7.5,7.5,7.5h12.074c4.142,0,7.5-3.357,7.5-7.5
						v-12.073C368.385,146.974,365.027,143.617,360.885,143.617z" />
				</g>
			</g>
			<g>
				<g>
					<path d="M163.191,341.311h-12.074c-4.142,0-7.5,3.357-7.5,7.5v12.073c0,4.143,3.358,7.5,7.5,7.5h12.074c4.142,0,7.5-3.357,7.5-7.5
						v-12.073C170.691,344.668,167.333,341.311,163.191,341.311z" />
				</g>
			</g>
			<g>
				<g>
					<path d="M202.729,341.311h-12.073c-4.142,0-7.5,3.357-7.5,7.5v12.073c0,4.143,3.358,7.5,7.5,7.5h12.073c4.142,0,7.5-3.357,7.5-7.5
						v-12.073C210.229,344.668,206.871,341.311,202.729,341.311z" />
				</g>
			</g>
			<g>
				<g>
					<path d="M242.268,341.311h-12.073c-4.142,0-7.5,3.357-7.5,7.5v12.073c0,4.143,3.358,7.5,7.5,7.5h12.073c4.142,0,7.5-3.357,7.5-7.5
						v-12.073C249.768,344.668,246.41,341.311,242.268,341.311z" />
				</g>
			</g>
			<g>
				<g>
					<path d="M281.807,341.311h-12.073c-4.142,0-7.5,3.357-7.5,7.5v12.073c0,4.143,3.358,7.5,7.5,7.5h12.073c4.142,0,7.5-3.357,7.5-7.5
						v-12.073C289.307,344.668,285.949,341.311,281.807,341.311z" />
				</g>
			</g>
			<g>
				<g>
					<path d="M321.346,341.311h-12.073c-4.142,0-7.5,3.357-7.5,7.5v12.073c0,4.143,3.358,7.5,7.5,7.5h12.073c4.142,0,7.5-3.357,7.5-7.5
						v-12.073C328.846,344.668,325.488,341.311,321.346,341.311z" />
				</g>
			</g>
			<g>
				<g>
					<path d="M360.885,341.311h-12.074c-4.142,0-7.5,3.357-7.5,7.5v12.073c0,4.143,3.358,7.5,7.5,7.5h12.074c4.142,0,7.5-3.357,7.5-7.5
						v-12.073C368.385,344.668,365.027,341.311,360.885,341.311z" />
				</g>
			</g>
			<g>
				<g>
					<path d="M163.191,183.156h-12.074c-4.142,0-7.5,3.357-7.5,7.5v12.073c0,4.143,3.358,7.5,7.5,7.5h12.074c4.142,0,7.5-3.357,7.5-7.5
						v-12.073C170.691,186.513,167.333,183.156,163.191,183.156z" />
				</g>
			</g>
			<g>
				<g>
					<path d="M163.191,222.695h-12.074c-4.142,0-7.5,3.357-7.5,7.5v12.073c0,4.143,3.358,7.5,7.5,7.5h12.074c4.142,0,7.5-3.357,7.5-7.5
						v-12.073C170.691,226.052,167.333,222.695,163.191,222.695z" />
				</g>
			</g>
			<g>
				<g>
					<path d="M163.191,262.234h-12.074c-4.142,0-7.5,3.357-7.5,7.5v12.073c0,4.143,3.358,7.5,7.5,7.5h12.074c4.142,0,7.5-3.357,7.5-7.5
						v-12.073C170.691,265.591,167.333,262.234,163.191,262.234z" />
				</g>
			</g>
			<g>
				<g>
					<path d="M163.191,301.772h-12.074c-4.142,0-7.5,3.357-7.5,7.5v12.074c0,4.143,3.358,7.5,7.5,7.5h12.074c4.142,0,7.5-3.357,7.5-7.5
						v-12.074C170.691,305.129,167.333,301.772,163.191,301.772z" />
				</g>
			</g>
			<g>
				<g>
					<path d="M360.885,183.156h-12.074c-4.142,0-7.5,3.357-7.5,7.5v12.073c0,4.143,3.358,7.5,7.5,7.5h12.074c4.142,0,7.5-3.357,7.5-7.5
						v-12.073C368.385,186.513,365.027,183.156,360.885,183.156z" />
				</g>
			</g>
			<g>
				<g>
					<path d="M360.885,222.695h-12.074c-4.142,0-7.5,3.357-7.5,7.5v12.073c0,4.143,3.358,7.5,7.5,7.5h12.074c4.142,0,7.5-3.357,7.5-7.5
						v-12.073C368.385,226.052,365.027,222.695,360.885,222.695z" />
				</g>
			</g>
			<g>
				<g>
					<path d="M360.885,262.234h-12.074c-4.142,0-7.5,3.357-7.5,7.5v12.073c0,4.143,3.358,7.5,7.5,7.5h12.074c4.142,0,7.5-3.357,7.5-7.5
						v-12.073C368.385,265.591,365.027,262.234,360.885,262.234z" />
				</g>
			</g>
			<g>
				<g>
					<path d="M360.885,301.772h-12.074c-4.142,0-7.5,3.357-7.5,7.5v12.074c0,4.143,3.358,7.5,7.5,7.5h12.074c4.142,0,7.5-3.357,7.5-7.5
						v-12.074C368.385,305.129,365.027,301.772,360.885,301.772z" />
				</g>
			</g>
		</symbol>
	</defs>
</svg>
